# xmcd
#
# Track frame offsets:
#	150
#	12017
#	29112
#	45465
#	56285
#	68957
#	87520
#	98847
#	106190
#	120642
#	138240
#	152495
#
# Disc length: 2255 seconds
#
# Revision: 79
# Processed by: cddbd v1.5.2PL0 Copyright (c) Steve Scherf et al.
# Submitted via: VUPlayer 2.49
#
DISCID=9308cd0c
DTITLE=Enya - A Day Without Rain
DYEAR=2000
DGENRE=Celtic
TTITLE0=A Day Without Rain
TTITLE1=Wild Child
TTITLE2=Only Time
TTITLE3=Tempus Vernum
TTITLE4=Deora Ar Mo Chroí
TTITLE5=Flora's Secret
TTITLE6=Fallen Embers
TTITLE7=Silver Inches
TTITLE8=Pilgrim
TTITLE9=One By One
TTITLE10=The First of Autumn
TTITLE11=Lazy Days
EXTD=
EXTT0=
EXTT1=
EXTT2=
EXTT3=
EXTT4=
EXTT5=
EXTT6=
EXTT7=
EXTT8=
EXTT9=
EXTT10=
EXTT11=
PLAYORDER=
